<?xml version="1.0" encoding="UTF-8"?>
<svg id="Capa_1" data-name="Capa 1" xmlns="http://www.w3.org/2000/svg" xmlns:xlink="http://www.w3.org/1999/xlink" version="1.1" viewBox="0 0 1927.5 457.5">
  <defs>
    <style>
      .cls-1 {
        clip-path: url(#clippath);
      }

      .cls-2 {
        fill: none;
      }

      .cls-2, .cls-3, .cls-4, .cls-5 {
        stroke-width: 0px;
      }

      .cls-3 {
        opacity: .8;
      }

      .cls-3, .cls-4, .cls-5 {
        fill: #fff;
      }

      .cls-4 {
        opacity: .6;
      }
    </style>
    <clipPath id="clippath">
      <rect class="cls-2" x="2.3" y="-170.8" width="1921" height="623"/>
    </clipPath>
  </defs>
  <g class="cls-1">
    <path class="cls-4" d="M1922.5,44.6c-11.5,103.7-113.8,176.5-215.4,192.2-101.7,15.8-205.3-48.1-306.5-66.7-101.2-18.7-210.5-28.2-302.4,18.6-79.9,40.6-141.9,92.8-230.8,102.1-118.1,12.3-205.7-81.1-314-107.8-78.2-19.3-161.4-14-236.2,16.4-80,32.5-141.3,92.7-229.3,108.4-76.1,13.6-167-17.4-193.5-91v478.4s2079.7,0,2079.7,0l-51.6-650.6Z"/>
    <path class="cls-3" d="M1954.6,468c6.9-51.3,2.6-43-30.8-79.3-75.2-81.6-183.7-132.8-295.4-128.3-214.4,8.7-410.3,171.7-631.9,104.7-84.1-25.4-146.7-96.1-232.8-116.6-58-13.8-118.9,1.4-175,21.3-120.9,42.9-228,75.1-354.6,33.1C125.6,267.1,30.4,188.9-19.1,85.2l-17,473.7s1948.7,70,1949,70c5.5.2,36.1-136.1,39.6-149.7.9-3.7,1.7-7.4,2.2-11.1Z"/>
    <path class="cls-5" d="M1997.9,331.8c-75.8,72.8-187.7,95.6-291.7,86.2-104-9.4-203.1-47.1-301.8-81.5-98.7-34.3-200.9-66-305.2-62.5-220.3,7.4-418.5,169.5-638.5,156.2-95.1-5.8-185.3-44.4-279.5-59.1-94.2-14.7-203.9,1.6-259.9,79.9v275.2s2084,0,2084,0l-7.4-394.4Z"/>
  </g>
</svg>