<svg id="eC9jckiK0EX1" xmlns="http://www.w3.org/2000/svg" xmlns:xlink="http://www.w3.org/1999/xlink" viewBox="0 0 1933 808.5" shape-rendering="geometricPrecision" text-rendering="geometricPrecision"><g style="isolation:isolate" transform="matrix(-1.015152 0.003295-.003246-.999995 1940.505989 778.983543)"><g><g clip-path="url(#eC9jckiK0EX11)"><g><g><path style="mix-blend-mode:multiply" d="M7.7,59.9C32.6,158.4,94.9,246.5,178.8,302s188.6,77.7,287.3,61c103.5-17.5,195.5-74.6,288.7-123.6c93.1-49,196.2-91.9,300.1-77.5c83.3,11.6,157.1,58.7,236.6,86.7c132.3,46.6,282.5,38,408.7-23.4c126.3-61.4,227-174.8,274.2-308.5v779.2h-1990.4L7.7,59.9Z" fill="#9dcfea" stroke-width="0"/><path style="mix-blend-mode:multiply" d="M1954.2,66.5c-11.6,103.9-113.9,176.7-215.7,192.5s-204.6-11.1-306-29.8c-101.3-18.7-210.8-28.2-302.9,18.6-80,40.7-143.1,122-232.2,131.3-129,13.4-225.4-130-353.8-148.1-76.6-10.8-151.8,25-218.3,65.1s-132.4,86.4-208.6,100-167.2-17.4-193.8-91.2v479.2h2082.9L1954.1,66.4l.1.1Z" fill="#4eb4e8" stroke-width="0"/><path style="mix-blend-mode:multiply" d="M-68.2,447.7C-39.8,360.9,27.2,288,110.6,253.3c83.3-34.7,181.5-30.6,261.7,10.9C452.9,305.9,512.1,380.7,589,428.9c109.2,68.5,252.7,76.9,368.9,21.6c64.8-30.8,122.5-80.3,192.8-93.5c109.7-20.6,213,51.3,320.3,82.6c199.6,58.4,432.9-42.1,530.1-228.4v513.8L-77.1,784.2l8.9-336.5Z" fill="#0086d2" stroke-width="0"/><path style="mix-blend-mode:multiply" d="M2015.7,527.4c-76,72.9-188,95.7-292.1,86.3s-203.4-47.2-302.3-81.6-201.2-66.1-305.6-62.6c-220.6,7.4-419.2,169.8-639.5,156.4-95.3-5.8-185.6-44.5-280-59.2-94.3-14.8-204.3,1.6-260.3,80v275.6h2087.3l-7.4-395-.1.1Z" fill="#0061a7" stroke-width="0"/></g></g><clipPath id="eC9jckiK0EX11"><rect width="1920" height="794.6" rx="0" ry="0" transform="translate(6-11.2)" fill="none" stroke-width="0"/></clipPath></g><path d="M5.6,755.3c0,0,172.1-168.9,378.8-152.1c277.2,22.6,392.3,189,607.8,182.5c237.7-7.2,535.5-216.5,684.8-223.7c112.4-5.4,210.5,32.6,249,63.7v175.9c0,0-1920,0-1920,0l-.5-46.3h.1Z" transform="matrix(1.01 0 0 1-15.1575-19.200037)" fill="#fff" stroke-width="0"/></g></g></svg>
