<?xml version="1.0" encoding="UTF-8"?>
<svg xmlns="http://www.w3.org/2000/svg" xmlns:xlink="http://www.w3.org/1999/xlink" version="1.1" viewBox="0 0 1933 1201.5">
  <defs>
    <style>
      .cls-1 {
        fill: #0061a7;
      }

      .cls-1, .cls-2, .cls-3, .cls-4, .cls-5, .cls-6 {
        stroke-width: 0px;
      }

      .cls-1, .cls-2, .cls-4, .cls-6 {
        mix-blend-mode: multiply;
      }

      .cls-2 {
        fill: #9dcfea;
      }

      .cls-7 {
        clip-path: url(#clippath);
      }

      .cls-3 {
        fill: none;
      }

      .cls-4 {
        fill: #4eb4e8;
      }

      .cls-8 {
        isolation: isolate;
      }

      .cls-5 {
        fill: #04143f;
      }

      .cls-6 {
        fill: #0086d2;
      }
    </style>
    <clipPath id="clippath">
      <rect class="cls-3" x="7.2" y="-20.6" width="1920" height="843.7"/>
    </clipPath>
  </defs>
  <g class="cls-8">
    <g id="Capa_1" data-name="Capa 1">
      <g>
        <g class="cls-7">
          <g>
            <path class="cls-2" d="M8.9,50.6c24.9,98.5,87.2,186.6,171.1,242.1,83.9,55.5,188.6,77.7,287.3,61,103.5-17.5,195.5-74.6,288.7-123.6,93.1-49,196.2-91.9,300.1-77.5,83.3,11.6,157.1,58.7,236.6,86.7,132.3,46.6,282.5,38,408.7-23.4,126.3-61.4,227-174.8,274.2-308.5l.5,991.6H-22.8L8.9,50.6Z"/>
            <path class="cls-4" d="M1955.4,57.1c-11.6,103.9-113.9,176.7-215.7,192.5-101.8,15.8-204.6-11.1-306-29.8-101.3-18.7-210.8-28.2-302.9,18.6-80,40.7-143.1,122-232.2,131.3-129,13.4-225.4-130-353.8-148.1-76.6-10.8-151.8,25-218.3,65.1-66.5,40.1-132.4,86.4-208.6,100-76.2,13.6-167.2-17.4-193.8-91.2l-2.9,603.5,2081-28-46.8-814Z"/>
            <path class="cls-6" d="M-67,438.4c28.4-86.8,95.4-159.7,178.8-194.4,83.3-34.7,181.5-30.6,261.7,10.9,80.6,41.7,139.8,116.5,216.7,164.7,109.2,68.5,252.7,76.9,368.9,21.6,64.8-30.8,122.5-80.3,192.8-93.5,109.7-20.6,213,51.3,320.3,82.6,199.6,58.4,432.9-42.1,530.1-228.4l-10.2,731.2L-78.8,899.1l11.9-460.7Z"/>
            <path class="cls-1" d="M2016.9,518c-76,72.9-188,95.7-292.1,86.3-104.1-9.4-203.4-47.2-302.3-81.6-98.9-34.4-201.2-66.1-305.6-62.6-220.6,7.4-419.2,169.8-639.5,156.4-95.3-5.8-185.6-44.5-280-59.2-94.3-14.8-204.3,1.6-260.3,80v275.6H2024.4l-7.4-395Z"/>
          </g>
        </g>
        <path class="cls-5" d="M7.7,762.8s171.1-168.9,377.8-152.1c277.2,22.6,392.3,189,607.8,182.5,237.7-7.2,535.5-216.5,684.8-223.7,112.4-5.4,210.5,32.6,249,63.7v175.9s-1920,0-1920,0l.5-46.3Z"/>
        <rect class="cls-5" x="7.7" y="809.1" width="1920" height="384.5"/>
      </g>
    </g>
  </g>
</svg>