<?xml version="1.0" encoding="UTF-8"?>
<svg xmlns="http://www.w3.org/2000/svg" version="1.1" viewBox="0 0 52.7 46.1">
  <defs>
    <style>
      .cls-1 {
        fill: #5935ff;
      }
    </style>
  </defs>
  <!-- Generator: Adobe Illustrator 28.6.0, SVG Export Plug-In . SVG Version: 1.2.0 Build 709)  -->
  <g>
    <g id="Capa_1">
      <path class="cls-1" d="M40.1.6c6,0,11,4.7,11.2,10.7v.5s0,18.8,0,18.8c0,2.6-2,4.8-4.6,5h-.4s-7.5,0-7.5,0v7.5c0,1.4-1.1,2.5-2.5,2.5-1.3,0-2.3-.9-2.5-2.2v-.3s0-7.5,0-7.5H6.3c-2.6,0-4.8-2-5-4.6v-.4s0-18.8,0-18.8c0-6,4.7-11,10.7-11.2h.5s27.5,0,27.5,0ZM40.1,5.6h-18.1c1.1,1.6,1.7,3.5,1.9,5.6v.7s0,18.8,0,18.8h22.5V11.8c0-3.3-2.6-6-5.8-6.2h-.4ZM12.6,5.6c-3.5,0-6.3,2.8-6.3,6.2v18.8h12.5V11.8c0-3.5-2.8-6.2-6.2-6.2ZM13.8,13.1c1.4,0,2.5,1.1,2.5,2.5,0,1.3-.9,2.3-2.2,2.5h-.3s-2.5,0-2.5,0c-1.4,0-2.5-1.1-2.5-2.5,0-1.3.9-2.3,2.2-2.5h.3s2.5,0,2.5,0Z"/>
    </g>
  </g>
</svg>