<?xml version="1.0" encoding="UTF-8"?>
<svg xmlns="http://www.w3.org/2000/svg" version="1.1" viewBox="0 0 52.7 46.1">
  <defs>
    <style>
      .cls-1 {
        fill: #32c8d9;
      }
    </style>
  </defs>
  <!-- Generator: Adobe Illustrator 28.6.0, SVG Export Plug-In . SVG Version: 1.2.0 Build 709)  -->
  <g>
    <g id="Capa_1">
      <path class="cls-1" d="M36.3,1.3c4,0,7.3,3.1,7.5,7.1v.4s0,5,0,5c4,0,7.3,3.1,7.5,7.1v.4s0,10,0,10c0,4-3.1,7.3-7.1,7.5h-.4v2.4c0,2.6-2.9,4-4.9,2.6l-.2-.2-5.8-4.8h-9.1c-1.8,0-3.6-.7-5-1.9l-.4-.3-4.7,3.5c-2,1.5-4.8.2-5-2.2v-.3s0-3.8,0-3.8c-4,0-7.3-3.1-7.5-7.1v-.4s0-17.5,0-17.5c0-4,3.1-7.3,7.1-7.5h.4s27.5,0,27.5,0ZM43.8,18.8h-20c-1.4,0-2.5,1.1-2.5,2.5v10c0,1.4,1.1,2.5,2.5,2.5h9.1c1.2,0,2.3.4,3.2,1.2l2.7,2.3c.2-1.9,1.8-3.4,3.7-3.4h1.2c1.4,0,2.5-1.1,2.5-2.5v-10c0-1.4-1.1-2.5-2.5-2.5ZM36.3,6.3H8.8c-1.4,0-2.5,1.1-2.5,2.5v17.5c0,1.4,1.1,2.5,2.5,2.5h1.2c2.1,0,3.8,1.7,3.8,3.8v1.2l2.5-1.9c0-.2,0-.4,0-.6v-10c0-4.1,3.4-7.5,7.5-7.5h15v-5c0-1.4-1.1-2.5-2.5-2.5Z"/>
    </g>
  </g>
</svg>