<svg id="eqnSiBD2k3x1" xmlns="http://www.w3.org/2000/svg" xmlns:xlink="http://www.w3.org/1999/xlink" viewBox="0 0 459.8 143.2" shape-rendering="geometricPrecision" text-rendering="geometricPrecision" project-id="79c6eeb8ec8d4bbe88e137c4b190ac96" export-id="429acbc2a176488588c68b9b107025f1" cached="false"><g><path d="M80,42.3c-2.3-.6-3.2-.7-8.6-.7-7.5,0-8.4-.2-11.4-2.8-1.5-1.3-3-2.4-4.4-3.2-4.2-2.5-7.1-6.1-8.8-11-1.5-4.2-1.5-7.5,0-12.6.4-1.3.4-1.6.3-1.7-.3-.2-2.7,0-3.7.3-1.6.5-5.4,2.5-7.5,3.9-2.9,1.9-6,4.7-7.1,6.4-.9,1.5-.6,3.4.9,5.4.9,1.1,2.1,2.1,4.8,3.7s3.1,1.9,4,3.2l.7,1h-1.8c-1.8-.1-1.9-.1-5.7-1.2-3.7-1-8.6-2.3-10.6-2.8-.8-.2-1.2-.2-2.8-.1-1,0-2.3.1-2.8.2-1.4.2-2.2-.2-3-1.4-.5-.7-.4-.9.5-2c.4-.5,1.2-1.5,1.7-2.3c2.5-3.5,4-5.1,6.7-7.4c3-2.5,4.7-3.6,11.5-7c1.5-.7,3.4-1.7,4.2-2.2c3.6-1.9,5.8-2.9,8.5-3.9c2.9-1,5.2-1.5,8-1.8.8,0,1.8-.2,2.2-.3c1.1-.3,4.7-.2,7.2,0c1.1.1,3.7.4,5.7.5c12.4.9,21.7,2.8,35.2,7.2c9.1,3,11.8,4,18.2,6.7c5.2,2.2,7.7,3.9,8.7,5.8c1,2-.5,4.7-4.6,8.2-2.8,2.3-5.3,3.6-10.7,5.6-8.2,3-11.8,3.9-20.6,5.1-4.2.6-5.5.7-9.6,1-3.6.3-4.4.3-5.3,0v0v.2Zm12-3.9c.8-.1,2.4-.3,3.6-.5s2.8-.4,3.4-.4c3.2-.2,5.9-1,9-2.5c2.7-1.3,4.5-2.5,8.4-5.3c2.1-1.6,2.6-2.1,2.9-3c.5-1.8-1.7-5.2-5.2-7.7-2.7-1.9-5.6-3.4-9.7-4.7-3-1-9.3-2.7-9.5-2.6c0,0,0,.6.3,1.2.7,2.3.8,3.2.8,5.9c0,2.3,0,2.6-.3,3.8-1,3.6-2.5,6-7.2,10.9-1.8,2-2.3,2.8-2.3,4v.8l1.2.2c1.6.3,2.9.3,4.6,0v0-.1Zm-15.2-.5c1.4-.3,2-.6,4.2-2.2c7.1-5,10.1-8.5,11.3-12.8.3-1.1.4-4.1.2-4.7-.4-1.3-1.5-1.1-3.5.8-.6.6-1.3,1.1-1.6,1.2-1,.3-1.8-.1-2.4-1.3-.1-.3-.5-.8-.7-1.1-.6-.8-.7-1.2-.3-2.3.5-1.4.3-2.3-.5-3-.6-.5-1.2-.6-2.7-.6-1.2,0-1.5.1-2.2.5-1.6.8-2.9,2.2-2.9,3.4c0,1.7,2.5,4.2,3.9,4c.3,0,.9-.1,1.4-.2.9,0,1,0,1.5.3.3.2.9.6,1.3,1c.6.6.7.7.7,1.1s-.2.9-1.2,1.9c-1.4,1.5-3.4,2.5-5.9,3.2-1.9.5-4.5.5-6.2,0-3.5-.9-7.1-3.8-8.7-7-.7-1.4-1.1-2.5-1.6-4.4-.3-1.2-.5-1.7-.6-1.7-.4,0-1.1.3-1.5.7s-1.5,2.6-2.3,4.4c-1.6,3.5-2.3,7.6-1.8,9.5.5,1.7,1.6,3.4,3.3,5.1c2.2,2.2,3.7,3.1,5.7,3.5c2.7.5,8,.9,10.5,1c.8,0,1.8,0,2.3-.2v0l.3-.1Z" fill="#fff" stroke-width="0"/><path d="M140.5,65.5c-2.2-.3-3.7-.7-4.9-1.4-2.9-1.7-14.1-8.9-18.5-12-4.5-3.1-5.5-3.8-7.2-4.8-1.6-.9-5.1-2.8-5.3-2.8s-2-1.8-2-1.9.3-.3.6-.4c.9-.3,3.2-.3,4.1,0c.4.1,2.2,1.3,4.1,2.6c6.5,4.4,15.7,9.5,23.6,13.3c8.5,4,9.1,4.3,9.5,5.2.3.6.2.9-.5,1.3-1.3.9-2,1.1-3.5.8v0v.1Z" fill="#fff" stroke-width="0"/><path d="M128.3,87c-.1,0-.5-.2-.9-.3-.6-.3-1.6-1.3-4.7-5.2-2.8-3.5-8.4-10.3-9.6-11.6-3.4-3.9-9.4-10.1-17.5-18.1-2.5-2.5-4.7-4.7-4.9-5-.6-.9-.4-1.2,1.2-2.1l.8-.4l1.2.6c1.4.7,1.9,1.2,5.6,5.3c3,3.3,3.4,3.8,8.3,8.7c4.7,4.8,5.1,5.3,9.5,10.1c6.4,7,7.4,8,11.2,11.5c1.6,1.4,3,2.8,3.1,3c.2.5.2,1.5,0,1.9-.5,1-2.1,1.7-3.2,1.5v0l-.1.1Z" fill="#fff" stroke-width="0"/><path d="M100.8,114.9c-.6-.4-1.3-1.5-2.6-4-.9-1.9-1.7-3.9-2.6-6.9-.4-1.5-1.1-3.5-1.5-4.6-1.2-3.3-2.4-6.9-3.2-9.8-2.1-6.6-2.6-8.4-4.1-13.3-3.3-10.7-4.2-13.6-6.4-19.5-2.1-5.7-2.1-5.5-2.1-7.2s.1-2,1.2-2.5c.5-.3.7-.3,1.1-.2.3,0,.6.3.7.5s.5,1.4.8,2.6c1.1,4.2,1.9,6.9,3.5,11.4.7,1.8,1.5,4,2.5,6.6.9,2.5,1.6,4.3,2.6,7.7.6,1.8,1.3,4.2,2.1,6.7c1.1,3.6,2.3,7.4,3,9.7c1.7,5.5,2.3,7.4,3.6,10.3.6,1.4,1.4,3.4,1.7,4.5s1.1,2.9,1.7,4.2l1,2.3-.4.5c-.9,1-1.8,1.3-2.6.8v0v.2Z" fill="#fff" stroke-width="0"/><path d="M70.5,140.9c-.1-.2-.5-.9-.8-1.7-.3-.7-.7-1.5-.9-1.8-.6-1.1-1-2.3-1.3-4.6-.1-.9-.4-2.2-.6-3l-.4-1.4.2-3.3c.3-4.9.4-7.6.7-12.9.2-5.4.4-9.2.6-12.9c0-1.4.2-5,.3-7.9c0-2.9.2-6.3.3-7.4.4-4.2.6-6.9.7-10.2.2-4.1.2-16,0-19.6-.1-3,0-4.6.5-7.5.4-2.5.6-2.8,1.3-2.6.5,0,.6.4,1.1,2.1.3,1.2.4,1.8.5,3.1c0,.9.1,2.7.2,4.2.4,6.7.4,11.5.3,23.2-.2,12.2-.1,15.4.3,24.4.8,16,1.1,21.5,1.7,28c.3,3.8.3,4-.5,6.6-.7,2.1-1.4,3.5-2.6,5.3-.3.5-.4.6-.9.6s-.6,0-.8-.4v0l.1-.3Z" fill="#fff" stroke-width="0"/><path d="M41.4,116.3c-.9-.2-1.2-.7-1-1.7c0-.4.2-1.6.4-2.5.5-4,1.4-7.3,3-10.6.7-1.5.8-1.8,2.8-8.7C49.1,84.3,50,81.3,54,69.3c4.8-14.5,5.3-15.8,7.3-20.4.8-1.8,1.1-2.2,1.7-2.2c1,0,1.8.8,1.8,1.7c0,1-.9,3.9-2.3,7.7-2.2,5.9-2.8,7.7-4.2,12.4-1.5,5.1-3.1,10.5-4.4,15.3-.4,1.5-2,7.2-3.6,12.6-1.5,5.4-3.1,11.2-3.6,12.8l-.8,3-1.1,1.7c-.6.9-1.3,1.8-1.4,2-.5.5-1.3.7-2,.5v0-.1Z" fill="#fff" stroke-width="0"/><path d="M13.1,84.1c-.9-.4-1.3-.6-1.3-1s.5-.8,1.2-1.6c2-2.2,4.5-4.6,12.6-12.3c5.2-5,11.9-11.5,13.8-13.6c3.2-3.4,5.2-6,7-9.1c1.3-2.2,1.6-2.4,4-2.4s2.1.2,2.6,1s.7.5-4.7,6.4c-5.2,5.6-14.8,16-17.2,18.7-4.3,4.9-7,7.4-12.4,11.6-2.2,1.7-2.5,1.9-3.5,2.2-.6.2-1.1.3-1.2.3c0,0-.5-.2-.9-.3v0v.1Z" fill="#fff" stroke-width="0"/><path d="M3.4,57.6c-.7-.2-1-.4-1-.7s1.9-1.5,3.3-2.3s2.6-1.2,4.9-1.9c4.4-1.3,8.1-3,17.5-7.9c3.6-1.9,6.8-3.5,7.1-3.6c1-.3,2.5-.6,4.1-.6c1.4,0,1.6,0,2.1.2.3.2.6.4.6.5.1.4-.9,1.1-3.5,2.4-2.9,1.5-8.4,4.2-12.1,6-1.3.6-4.4,2.1-7.1,3.4-5.1,2.5-6.9,3.3-9,3.8-2.6.7-5.8,1-6.9.7v0Z" fill="#fff" stroke-width="0"/><path d="M80,42.3c-2.3-.6-3.2-.7-8.6-.7-7.5,0-8.4-.2-11.4-2.8-1.5-1.3-3-2.4-4.4-3.2-4.2-2.5-7.1-6.1-8.8-11-1.5-4.2-1.5-7.5,0-12.6.4-1.3.4-1.6.3-1.7-.3-.2-2.7,0-3.7.3-1.6.5-5.4,2.5-7.5,3.9-2.9,1.9-6,4.7-7.1,6.4-.9,1.5-.6,3.4.9,5.4.9,1.1,2.1,2.1,4.8,3.7s3.1,1.9,4,3.2l.7,1h-1.8c-1.8-.1-1.9-.1-5.7-1.2-3.7-1-8.6-2.3-10.6-2.8-.8-.2-1.2-.2-2.8-.1-1,0-2.3.1-2.8.2-1.4.2-2.2-.2-3-1.4-.5-.7-.4-.9.5-2c.4-.5,1.2-1.5,1.7-2.3c2.5-3.5,4-5.1,6.7-7.4c3-2.5,4.7-3.6,11.5-7c1.5-.7,3.4-1.7,4.2-2.2c3.6-1.9,5.8-2.9,8.5-3.9c2.9-1,5.2-1.5,8-1.8.8,0,1.8-.2,2.2-.3c1.1-.3,4.7-.2,7.2,0c1.1.1,3.7.4,5.7.5c12.4.9,21.7,2.8,35.2,7.2c9.1,3,11.8,4,18.2,6.7c5.2,2.2,7.7,3.9,8.7,5.8c1,2-.5,4.7-4.6,8.2-2.8,2.3-5.3,3.6-10.7,5.6-8.2,3-11.8,3.9-20.6,5.1-4.2.6-5.5.7-9.6,1-3.6.3-4.4.3-5.3,0v0v.2Zm12-3.9c.8-.1,2.4-.3,3.6-.5s2.8-.4,3.4-.4c3.2-.2,5.9-1,9-2.5c2.7-1.3,4.5-2.5,8.4-5.3c2.1-1.6,2.6-2.1,2.9-3c.5-1.8-1.7-5.2-5.2-7.7-2.7-1.9-5.6-3.4-9.7-4.7-3-1-9.3-2.7-9.5-2.6c0,0,0,.6.3,1.2.7,2.3.8,3.2.8,5.9c0,2.3,0,2.6-.3,3.8-1,3.6-2.5,6-7.2,10.9-1.8,2-2.3,2.8-2.3,4v.8l1.2.2c1.6.3,2.9.3,4.6,0v0-.1Zm-15.2-.5c1.4-.3,2-.6,4.2-2.2c7.1-5,10.1-8.5,11.3-12.8.3-1.1.4-4.1.2-4.7-.4-1.3-1.5-1.1-3.5.8-.6.6-1.3,1.1-1.6,1.2-1,.3-1.8-.1-2.4-1.3-.1-.3-.5-.8-.7-1.1-.6-.8-.7-1.2-.3-2.3.5-1.4.3-2.3-.5-3-.6-.5-1.2-.6-2.7-.6-1.2,0-1.5.1-2.2.5-1.6.8-2.9,2.2-2.9,3.4c0,1.7,2.5,4.2,3.9,4c.3,0,.9-.1,1.4-.2.9,0,1,0,1.5.3.3.2.9.6,1.3,1c.6.6.7.7.7,1.1s-.2.9-1.2,1.9c-1.4,1.5-3.4,2.5-5.9,3.2-1.9.5-4.5.5-6.2,0-3.5-.9-7.1-3.8-8.7-7-.7-1.4-1.1-2.5-1.6-4.4-.3-1.2-.5-1.7-.6-1.7-.4,0-1.1.3-1.5.7s-1.5,2.6-2.3,4.4c-1.6,3.5-2.3,7.6-1.8,9.5.5,1.7,1.6,3.4,3.3,5.1c2.2,2.2,3.7,3.1,5.7,3.5c2.7.5,8,.9,10.5,1c.8,0,1.8,0,2.3-.2v0l.3-.1Z" fill="#fff" stroke-width="0"/></g><path d="M315.8,32.3v-5.2c0,0-4.2-7.2-4.2-7.2l-4.2-7.2h4c2.2,0,4.1,0,4.2,0s1.2,1.9,2.4,4.1s2.2,4,2.3,4c0,0,1-1.9,2.1-4.1l2-4h3.3c1.8,0,3.3,0,3.3,0c0,.1-1,1.9-5.3,9.8l-2.4,4.3v10.6h-7.5v-5.2.1Zm14.4,5c0,0,.4-1.3.8-2.7s1.9-6,3.2-10.2s2.5-7.8,2.5-8.1c0-.2.4-1.1.7-2.1l.5-1.7h8.1l.8,2.6c.5,1.4,1.3,4,1.8,5.8.6,1.7,1.2,3.7,1.4,4.4.7,2.2,3.7,11.7,3.8,11.9c0,.2-.8.2-3.8.2h-3.9l-.2-.8c-.1-.5-.4-1.6-.7-2.4l-.4-1.6h-3.4c0,0-3.4,0-3.4,0l-.7,2.4-.7,2.4h-3.1c-1.8,0-3.1,0-3.1-.1v0h-.2Zm13-10.2c0-.2-.4-1.3-.7-2.5s-.8-2.7-.9-3.4l-.4-1.2-1,3.5c-.5,1.9-1,3.6-.9,3.6c0,0,.9.1,2,.1c1.8,0,2,0,1.9-.3v0v.2Zm12.6-2v-12.4h5c0,0,5,0,5,0l.8,2.9c2.4,8.7,2.8,10.1,2.9,9.9c0-.1.6-1.9,1.1-4s1.3-4.9,1.6-6.3c.4-1.4.7-2.5.7-2.5s2.3,0,5.1,0h5.1v24.8h-7.2v-8.7c0-7.8,0-8.6-.3-7.9-.2.8-2.6,9.8-3.8,14.5l-.5,2.1h-2.5c0,0-2.5,0-2.5,0l-.5-1.9c-.3-1-1.4-4.9-2.4-8.7l-1.9-6.8v8.7c0,0,0,8.7,0,8.7h-5.7v-12.4Zm29.3,12.1c0-.2.5-1.4.9-2.9.4-1.4,1.4-4.6,2.2-7.1s2.1-6.6,2.9-9.2s1.5-4.8,1.6-5c.2-.4.2-.4,4.2-.4s4,0,4.1.2c.2.6,1.3,4,1.9,6.1.4,1.3,1.9,5.9,3.3,10.3s2.5,8,2.5,8.1-1.7.1-3.9.1h-3.9l-.7-2.4-.7-2.4h-6.9l-.2.8c-.1.4-.5,1.5-.7,2.4l-.5,1.6h-3.1c-2.9,0-3.1,0-3-.3v0v.1Zm12.9-10c0-.2-1.9-7-2-7c0,0-2,6.6-2,6.9s.5.2,2,.2s2,0,2-.1v0Zm12.6-2.1v-12.4h3.6c3.2,0,3.6,0,3.8.3.3.3,5.8,8.9,6.6,10.2.3.5.8,1.4,1.1,2l.6,1.1v-.7c-.4-2.6-.5-5.4-.5-8.9v-4h6.2v12.4c0,0,0,12.4,0,12.4h-3.2c0,0-3.2,0-3.2,0l-3.7-5.8c-2-3.2-4.1-6.6-4.6-7.6s-.9-1.8-1-1.8c0,0,0,.5.1,1c.1.6.2,3.6.2,7.6v6.7h-6.2v-12.4l.2-.1Zm23.5,12.2c0,0,.2-.8.5-1.7.4-1.4,1.4-4.5,5.3-17.1.8-2.4,1.5-4.8,1.6-5.2l.2-.8h8.1l.5,1.7c.4,1.4,2.5,7.8,6.5,20.5.3,1.1.7,2.1.7,2.3v.4c.1,0-3.8,0-3.8,0h-3.9l-.2-.8c-.1-.5-.4-1.6-.7-2.4l-.4-1.6h-3.4c-3.1,0-3.4,0-3.5.3c0,.2-.4,1.2-.8,2.4l-.6,2.1h-3.1c-1.9,0-3.1,0-3.1-.2v0l.1.1ZM447,27.2c0-.1-.4-2-1.6-6.1-.1-.5-.3-.8-.3-.8-.1.1-2,6.8-1.9,6.9c0,.2,3.8.2,3.9,0v0h-.1ZM338.8,10.4c-.1-.2-.9-2.3-.9-2.4c0,0,.4-.2.9-.4.4-.2,2.3-1.1,4.1-2s3.3-1.6,3.4-1.6s1.4,3.4,1.3,3.5c0,0-.4.2-.8.3s-2.3.8-4.3,1.5c-1.9.7-3.6,1.2-3.6,1.1h-.1Zm-129,27.5c-4.7-.5-7.5-2.6-8.4-6-.2-.8-.2-2-.3-10.1v-9.3c0,0,3.9,0,3.9,0h4v8.8c0,8.7,0,8.8.3,9.3.1.3.5.7.7.9c1.1,1,3.8.8,5-.3.8-.7.8-.3.8-9.9v-8.7h6.1v9.3c0,9.3,0,9.3-.4,10.2-.4,1.3-.9,2.2-1.6,3-1.2,1.2-2.8,2.1-5,2.6-1.3.3-3.9.4-5.3.2v0h.2Zm24.3,0c-1.4-.2-2.4-.5-3.7-1.1-1.2-.6-1.4-.8-2.5-1.9-1.3-1.3-1.9-2.2-2.6-3.8-1.1-2.7-1.3-6.8-.5-10c.8-3.6,2.9-6.5,5.7-7.8c1.7-.8,2.7-1,5.2-1c1.6,0,2.5,0,3.1.2c3.4.8,5.8,3,7,6.5.3.8.7,3.1.6,3.2c0,0-5.8.4-6.7.4h-.4c0,0-.1-1.1-.1-1.1-.2-1.4-.6-2.3-1.3-2.9s-1.1-.7-1.9-.7c-2.3,0-3.5,2.1-3.6,6.6-.2,5,.7,7.2,3,7.7c2,.4,3.5-.8,4-3.2l.2-.9h.8c1.1.2,4.8.4,5.4.4.8,0,.8,0,.7,1.1-.2,1.2-.8,2.8-1.4,3.8-1.3,2.2-3.8,3.9-6.5,4.5-1.1.2-3.2.3-4.3.2v0l-.2-.2Zm45,0c-5-.6-8.6-3.9-9.9-8.9-.4-1.4-.5-4.5-.3-6.2.6-4.7,3.3-8.3,7-9.8c1.7-.7,2.5-.8,5-.8c2.7,0,3.5.2,5.4,1.1c2.4,1.2,4.3,3.2,5.4,5.7c1.8,4.3,1.3,10.3-1.1,13.9-1.8,2.6-4.1,4.1-7.1,4.8-1.1.2-3.3.3-4.4.2v0Zm3.2-5.9c1.6-.8,2.2-2.8,2.2-7.3c0-4.8-1-6.8-3.6-6.8-1.8,0-2.9,1.2-3.5,3.7-.2.8-.2,1.5-.2,3.7c0,3,.2,4.1.9,5.4.8,1.5,2.7,2.1,4.3,1.3v0h-.1ZM177.8,25.1v-12.5h7.1c8,0,8.4,0,10,.8c2.4,1.2,3.9,4,3.4,6.6-.3,1.8-1.3,3.3-2.9,4.1-.5.2-1,.4-1.1.4s.3.2.9.4c2.5.9,3.7,2.5,3.8,5.1c0,1.9-.3,3.2-1.2,4.8-.6.9-1.1,1.4-2.1,1.9-1.9.9-3.5,1-11.5,1h-6.4v-12.5-.1Zm12.4,6.7c1.3-.6,1.7-2.1.9-3.3-.6-.9-1-1-3.8-1.1h-2.4c0,0,0,2.3,0,2.3v2.4h2.3c2.1,0,2.4-.1,2.9-.4v0l.1.1Zm-.7-9.8c1.2-.3,1.9-1.8,1.4-3-.4-.9-1.3-1.2-4.1-1.2h-1.9v4.3h2c1.1,0,2.2,0,2.5-.1v0h.1Zm59,3.1v-12.5h19v5.8h-11.4v1.8c0,0,0,1.8,0,1.8h4.6c0,0,4.6,0,4.6,0v5.5h-9.3v4.1h11.4v6h-19v-12.5h.1Z" transform="translate(-1 38)" fill="#fff" stroke-width="0"/></svg>
