<?xml version="1.0" encoding="UTF-8"?>
<svg id="Capa_1" data-name="Capa 1" xmlns="http://www.w3.org/2000/svg" version="1.1" viewBox="0 0 198 291.5">
  <defs>
    <style>
      .cls-1 {
        fill: #082640;
        stroke-width: 0px;
      }
    </style>
  </defs>
  <g id="layer1">
    <g>
      <path id="path1" class="cls-1" d="M17.8,84.1v-6s-4.9-8.3-4.9-8.3l-4.9-8.3h4.7c2.6,0,4.8,0,4.9,0,.1,0,1.4,2.2,2.7,4.8,1.4,2.6,2.6,4.6,2.6,4.6,0,0,1.2-2.2,2.5-4.7l2.4-4.6h3.8c2.1,0,3.8,0,3.8,0,0,.1-1.1,2.3-6.1,11.4l-2.8,5v12.3h-8.7v-6ZM34.5,90c0,0,.4-1.5.9-3.1.5-1.6,2.2-7,3.7-11.9,1.5-4.9,2.8-9.1,2.9-9.4,0-.3.4-1.3.8-2.4l.6-1.9h9.4l1,3c.5,1.7,1.5,4.7,2.1,6.7s1.4,4.3,1.6,5.1c.8,2.5,4.3,13.6,4.4,13.8,0,.2-.9.2-4.5.2h-4.6l-.3-1c-.2-.5-.5-1.8-.8-2.8l-.5-1.8h-4s-4,0-4,0l-.8,2.8-.8,2.8h-3.6c-2.1,0-3.6,0-3.6-.2h0ZM49.6,78c0-.2-.4-1.5-.8-2.9-.4-1.4-.9-3.2-1.1-3.9l-.4-1.4-1.2,4.1c-.6,2.3-1.1,4.2-1.1,4.2,0,0,1.1.1,2.4.1,2.1,0,2.3,0,2.2-.3h0ZM64.2,75.7v-14.4h5.8s5.8,0,5.8,0l.9,3.4c2.8,10.1,3.3,11.7,3.4,11.5,0-.1.7-2.2,1.3-4.6.6-2.4,1.5-5.7,1.9-7.3.4-1.6.8-2.9.8-2.9s2.6,0,5.9,0h5.9v28.8h-8.3v-10.1c0-9.1,0-10-.3-9.1-.3.9-3,11.4-4.4,16.8l-.6,2.4h-2.8c0,0-2.8-.1-2.8-.1l-.6-2.2c-.3-1.2-1.6-5.7-2.8-10.1l-2.2-7.9v10.1s0,10.1,0,10.1h-6.6v-14.4ZM98.2,89.8c0-.2.5-1.7,1-3.3.5-1.6,1.7-5.4,2.6-8.2.9-2.9,2.4-7.7,3.3-10.7.9-3,1.8-5.6,1.9-5.9.2-.4.2-.4,4.8-.4s4.7,0,4.7.2c.2.7,1.5,4.7,2.3,7.1.5,1.5,2.2,6.9,3.8,12,1.6,5.1,2.9,9.3,2.9,9.4s-2,.2-4.5.2h-4.5l-.8-2.8-.8-2.8h-8.1l-.3.9c-.1.5-.5,1.8-.8,2.8l-.6,1.8h-3.6c-3.3,0-3.6,0-3.5-.3h0ZM113.3,78.2c0-.3-2.2-8.1-2.3-8.1-.1,0-2.3,7.6-2.3,8s.6.2,2.3.2,2.3,0,2.3-.1h0ZM127.8,75.7v-14.4h4.1c3.7,0,4.2,0,4.4.3.3.4,6.7,10.3,7.7,11.8.3.6.9,1.6,1.3,2.3l.7,1.3v-.8c-.5-3.1-.6-6.3-.6-10.3v-4.6h7.3v14.4s0,14.4,0,14.4h-3.7c0,0-3.7-.1-3.7-.1l-4.2-6.7c-2.3-3.7-4.7-7.7-5.3-8.8s-1.1-2.1-1.1-2c0,0,0,.6.1,1.2.1.7.2,4.1.2,8.8v7.7h-7.2v-14.4ZM155.1,90c0-.1.3-1,.6-1.9.5-1.6,1.7-5.3,6.2-19.8.9-2.8,1.7-5.5,1.9-6l.3-.9h9.4l.6,1.9c.5,1.6,2.9,9,7.6,23.8.4,1.2.8,2.4.8,2.7v.4c.1,0-4.4,0-4.4,0h-4.5l-.3-1c-.2-.5-.5-1.8-.8-2.8l-.5-1.8h-3.9c-3.6,0-4,0-4.1.3,0,.2-.5,1.4-.9,2.8l-.7,2.5h-3.6c-2.2,0-3.6,0-3.6-.2h0ZM170.1,78.2c0-.1-.5-2.3-1.9-7.1-.2-.6-.3-1-.4-.9-.2.2-2.3,7.9-2.2,8,.1.2,4.4.2,4.5,0h0ZM44.4,58.7c-.2-.3-1.1-2.7-1-2.8,0,0,.5-.2,1-.5.5-.2,2.6-1.3,4.7-2.3,2.1-1,3.8-1.8,3.9-1.8.2,0,1.6,3.9,1.5,4,0,0-.5.2-.9.4-.5.2-2.7.9-5,1.7-2.3.8-4.2,1.3-4.2,1.3ZM56.4,43.7c-7.1-.8-11.5-3.9-12.7-9.1-.3-1.1-.3-3.1-.4-15.4V5.1c0,0,6,0,6,0h6.1v13.3c.1,13.3.1,13.3.5,14.1.2.4.7,1,1.1,1.3,1.7,1.5,5.8,1.2,7.6-.5,1.2-1.1,1.2-.5,1.2-15.1V5.1h9.3v14.2c-.1,14.1-.1,14.2-.6,15.6-.6,2.1-1.3,3.3-2.4,4.5-1.8,1.9-4.3,3.2-7.6,3.9-2,.4-5.9.6-8,.4h0ZM93.4,43.7c-2.1-.3-3.6-.7-5.7-1.7-1.8-.9-2.2-1.2-3.9-2.8-2-2-3-3.4-3.9-5.8-1.6-4.2-2-10.3-.8-15.2,1.3-5.5,4.4-9.8,8.7-11.9,2.7-1.3,4-1.6,8-1.6,2.5,0,3.8,0,4.8.3,5.2,1.2,8.9,4.6,10.7,9.8.4,1.3,1.1,4.7.9,4.8,0,0-8.8.6-10.2.7h-.7s-.2-1.7-.2-1.7c-.3-2.1-.9-3.5-2-4.4-1.1-.9-1.7-1.1-2.9-1.1-3.5,0-5.3,3.2-5.5,10-.3,7.6,1.1,11,4.5,11.7,3,.6,5.4-1.3,6-4.9l.2-1.3h1.2c1.7.3,7.3.6,8.3.6,1.2,0,1.3.1,1,1.6-.3,1.9-1.2,4.2-2.1,5.7-2,3.4-5.8,6-9.9,6.8-1.7.4-4.9.5-6.6.3h0ZM161.9,43.7c-7.6-1-13.1-5.9-15.1-13.5-.6-2.2-.8-6.9-.5-9.4,1-7.1,5-12.7,10.7-15,2.5-1,3.8-1.2,7.7-1.2,4.1,0,5.3.3,8.3,1.7,3.7,1.8,6.6,4.8,8.2,8.6,2.7,6.5,2,15.7-1.7,21.2-2.7,3.9-6.3,6.3-10.9,7.3-1.6.3-5.1.5-6.7.3h0ZM166.8,34.7c2.4-1.2,3.3-4.3,3.3-11.1,0-7.4-1.6-10.4-5.4-10.4-2.8,0-4.5,1.8-5.4,5.7-.3,1.2-.4,2.2-.3,5.6,0,4.6.3,6.2,1.4,8.2,1.3,2.3,4.1,3.2,6.5,2h0ZM7.6,24.2V5.1h10.9c12.1,0,12.8,0,15.2,1.2,3.7,1.8,5.9,6.1,5.2,10.1-.4,2.8-2,5-4.4,6.2-.7.4-1.5.7-1.6.7-.2,0,.4.3,1.3.6,3.8,1.4,5.6,3.8,5.8,7.7.1,2.9-.4,4.9-1.9,7.3-.9,1.4-1.7,2.1-3.2,2.8-2.9,1.3-5.3,1.5-17.5,1.5H7.6v-19.1ZM26.6,34.4c1.9-.9,2.6-3.3,1.4-5-1-1.4-1.5-1.5-5.7-1.6h-3.6c0,0,0,3.5,0,3.5v3.6h3.6c3.1-.1,3.7-.2,4.4-.5h0ZM25.5,19.5c1.9-.5,2.9-2.7,2.1-4.5-.6-1.4-2-1.8-6.2-1.8h-2.8v6.6h3.1c1.7,0,3.4,0,3.8-.2h0ZM115.3,24.2V5.1h29v8.8h-17.4v2.8c0,0,.1,2.8.1,2.8h7.1s7.1,0,7.1,0v8.4h-14.2v6.2h17.4v9.2h-29v-19.1Z"/>
      <path id="path2" class="cls-1" d="M107.6,153.9c-3.1-.8-4.2-.9-11.5-1-10.1,0-11.3-.3-15.2-3.7-2-1.8-4.1-3.2-5.9-4.3-5.7-3.4-9.5-8.1-11.9-14.7-2-5.7-2-10.1-.1-16.9.5-1.7.6-2.2.4-2.3-.4-.3-3.7,0-4.9.4-2.2.7-7.3,3.4-10.1,5.2-3.9,2.6-8,6.4-9.5,8.6-1.3,2-.8,4.5,1.2,7.2,1.1,1.5,2.9,2.8,6.5,5,3.6,2.2,4.2,2.6,5.3,4.3l.9,1.3h-2.4c-2.4-.2-2.5-.2-7.7-1.6-4.9-1.4-11.5-3.1-14.2-3.8-1-.3-1.7-.3-3.7-.2-1.4,0-3,.2-3.7.3-1.8.2-2.9-.3-4-1.9-.6-1-.6-1.2.6-2.7.5-.6,1.5-2,2.3-3.1,3.4-4.8,5.3-6.9,8.9-9.9,4-3.3,6.3-4.8,15.5-9.4,1.9-1,4.5-2.3,5.7-2.9,4.8-2.6,7.8-3.9,11.4-5.2,3.9-1.3,6.9-2,10.7-2.4,1.1-.1,2.4-.3,2.9-.4,1.5-.4,6.4-.3,9.6.1,1.5.2,4.9.5,7.7.7,16.6,1.2,29.1,3.7,47.2,9.7,12.2,4,15.8,5.4,24.4,9,6.9,3,10.3,5.2,11.6,7.8,1.4,2.7-.7,6.3-6.2,10.9-3.8,3.1-7.1,4.9-14.3,7.6-11,4.1-15.8,5.3-27.6,6.9-5.6.8-7.4.9-12.8,1.3-4.8.4-5.8.3-7.2,0h0ZM123.6,148.8c1-.1,3.2-.4,4.9-.7,1.7-.2,3.7-.5,4.6-.5,4.3-.3,7.8-1.3,12.1-3.3,3.6-1.7,6.1-3.3,11.2-7.1,2.8-2.1,3.5-2.8,3.9-4.1.7-2.4-2.3-7-6.9-10.4-3.6-2.6-7.5-4.5-13-6.3-4-1.3-12.5-3.6-12.7-3.5,0,0,.1.8.4,1.6.9,3.1,1.1,4.3,1.1,7.8,0,3,0,3.5-.5,5.1-1.3,4.8-3.4,8-9.6,14.6-2.5,2.6-3.1,3.7-3.1,5.3v1.1l1.6.3c2.1.4,3.9.4,6.1,0h0ZM103.3,148.1c1.8-.4,2.7-.8,5.6-2.9,9.5-6.7,13.6-11.4,15.1-17.1.4-1.5.6-5.5.3-6.4-.6-1.8-2-1.4-4.7,1.1-.9.8-1.7,1.4-2.1,1.6-1.3.4-2.5-.2-3.2-1.7-.2-.4-.6-1.1-.9-1.5-.8-1.1-.9-1.7-.4-3,.7-1.9.4-3.1-.7-4.1-.8-.7-1.6-.9-3.6-.8-1.6,0-1.9.1-3,.6-2.2,1-3.9,3-3.9,4.6,0,2.3,3.4,5.7,5.3,5.3.4,0,1.2-.2,1.9-.2,1.2,0,1.4,0,2.1.4.4.2,1.2.9,1.8,1.3.9.8,1,1,1,1.5s-.3,1.2-1.6,2.5c-1.9,2-4.6,3.4-7.9,4.2-2.6.6-6.1.7-8.3,0-4.7-1.3-9.5-5.1-11.7-9.4-.9-1.8-1.5-3.3-2.1-5.9-.4-1.6-.7-2.3-.9-2.3-.5-.1-1.5.3-2,.9-.5.6-2,3.5-3.1,5.9-2.1,4.7-3.1,10.2-2.4,12.7.7,2.3,2.1,4.5,4.4,6.9,2.9,3,4.9,4.2,7.7,4.6,3.7.6,10.7,1.3,14.1,1.3,1,0,2.3,0,3.1-.2h0Z"/>
      <path id="path5" class="cls-1" d="M188.6,185.1c-2.9-.4-4.9-1-6.5-1.9-3.9-2.2-18.8-11.9-24.8-16-6-4.1-7.4-5.1-9.7-6.4-2.1-1.2-6.9-3.7-7-3.7-.2,0-2.7-2.4-2.7-2.6s.4-.3.8-.5c1.2-.5,4.2-.4,5.4,0,.5.2,3,1.7,5.5,3.4,8.8,5.9,21,12.7,31.6,17.8,11.4,5.4,12.2,5.8,12.7,7,.4.8.2,1.2-.7,1.8-1.8,1.2-2.7,1.4-4.7,1.1h0Z"/>
      <path id="path6" class="cls-1" d="M172.3,213.8c-.2,0-.7-.2-1.2-.5-.9-.4-2.1-1.7-6.3-7-3.8-4.7-11.3-13.7-12.8-15.5-4.5-5.2-12.6-13.5-23.5-24.2-3.4-3.3-6.3-6.3-6.5-6.6-.7-1.2-.6-1.6,1.6-2.8l1-.6,1.6.8c1.8,1,2.5,1.7,7.5,7.1,4,4.4,4.6,5.1,11.1,11.7,6.3,6.4,6.8,7,12.7,13.5,8.6,9.3,10,10.8,15,15.3,2.1,1.9,4,3.7,4.1,4,.3.6.3,2,0,2.6-.7,1.3-2.8,2.3-4.3,2h0Z"/>
      <path id="path7" class="cls-1" d="M135.5,251.1c-.8-.5-1.8-2-3.5-5.3-1.3-2.5-2.3-5.2-3.5-9.3-.6-2-1.5-4.7-2-6.2-1.5-4.4-3.2-9.3-4.3-13.1-2.8-8.8-3.5-11.3-5.6-17.9-4.4-14.4-5.7-18.2-8.6-26.1-2.9-7.6-2.8-7.4-2.8-9.7,0-2.3.2-2.6,1.6-3.4.7-.4.9-.4,1.5-.2.4.1.8.4,1,.6.1.2.6,1.8,1.1,3.5,1.5,5.7,2.5,9.2,4.7,15.2.9,2.4,1.9,5.3,3.3,8.9,1.2,3.3,2.1,5.8,3.5,10.3.8,2.4,1.8,5.7,2.9,9,1.5,4.8,3.1,9.9,4.1,13,2.3,7.4,3.1,9.9,4.8,13.9.8,1.9,1.8,4.6,2.3,6,.5,1.4,1.5,3.9,2.2,5.6l1.4,3.1-.5.7c-1.1,1.4-2.4,1.8-3.5,1.1h0Z"/>
      <path id="path8" class="cls-1" d="M94.8,286c-.2-.3-.7-1.3-1.1-2.2-.4-1-.9-2.1-1.2-2.5-.8-1.4-1.3-3.1-1.8-6.1-.2-1.2-.5-3-.8-4l-.5-1.9.3-4.4c.4-6.6.6-10.2.9-17.3.3-7.3.5-12.4.8-17.3,0-1.9.3-6.6.3-10.6,0-3.9.3-8.4.4-9.9.5-5.6.8-9.3,1-13.6.2-5.6.3-21.4,0-26.3-.1-4,0-6.1.7-10.1.6-3.3.8-3.7,1.8-3.5.6.1.8.5,1.5,2.8.4,1.6.6,2.4.6,4.1,0,1.2.2,3.7.3,5.6.5,9,.5,15.4.3,31-.2,16.3-.1,20.6.5,32.6,1.1,21.4,1.5,28.8,2.3,37.5.5,5.1.4,5.4-.7,8.8-1,2.8-1.9,4.7-3.5,7.1-.5.7-.6.7-1.2.7s-.8,0-1-.5h0Z"/>
      <path id="path9" class="cls-1" d="M55.9,253.1c-1.2-.3-1.6-.9-1.3-2.3.1-.6.3-2.1.5-3.3.7-5.4,1.9-9.8,4-14.3,1-2,1.1-2.4,3.8-11.7,3.3-11.4,4.6-15.3,9.9-31.5,6.5-19.5,7.1-21.2,9.8-27.4,1.1-2.5,1.4-2.9,2.2-2.9,1.3,0,2.3,1,2.3,2.3,0,1.3-1.2,5.2-3,10.3-2.9,7.8-3.7,10.3-5.6,16.6-2,6.9-4.1,14.1-5.9,20.5-.6,2-2.7,9.6-4.8,16.9-2.1,7.3-4.2,15-4.8,17.2l-1,4-1.5,2.3c-.8,1.2-1.7,2.4-1.9,2.6-.7.6-1.8.9-2.7.7h0Z"/>
      <path id="path10" class="cls-1" d="M17.9,209.9c-1.2-.5-1.7-.9-1.7-1.3s.7-1.1,1.6-2.1c2.7-2.9,6-6.2,16.8-16.5,7-6.6,15.9-15.4,18.5-18.2,4.2-4.6,6.9-8.1,9.4-12.2,1.8-3,2.1-3.2,5.3-3.2s2.8.3,3.5,1.3c.7,1.1,1,.7-6.3,8.6-6.9,7.4-19.8,21.5-23,25.1-5.8,6.6-9.3,9.9-16.7,15.6-3,2.3-3.3,2.6-4.7,3-.8.2-1.5.4-1.6.4,0,0-.6-.2-1.2-.5h0Z"/>
      <path id="path11" class="cls-1" d="M4.9,174.5c-.9-.3-1.4-.6-1.4-.9s2.6-2,4.4-3c1.9-1,3.4-1.6,6.6-2.6,5.9-1.8,10.9-4,23.4-10.6,4.8-2.5,9-4.7,9.5-4.8,1.3-.4,3.3-.8,5.4-.9,1.9,0,2.1,0,2.8.3.4.2.8.5.9.6.1.5-1.3,1.5-4.6,3.2-3.8,2-11.2,5.7-16.2,8-1.7.8-6,2.9-9.5,4.6-6.8,3.3-9.2,4.4-12,5.1-3.5.9-7.8,1.3-9.3.9h0Z"/>
      <path id="path12" class="cls-1" d="M107.6,153.9c-3.1-.8-4.2-.9-11.5-1-10.1,0-11.3-.3-15.2-3.7-2-1.8-4.1-3.2-5.9-4.3-5.7-3.4-9.5-8.1-11.9-14.7-2-5.7-2-10.1-.1-16.9.5-1.7.6-2.2.4-2.3-.4-.3-3.7,0-4.9.4-2.2.7-7.3,3.4-10.1,5.2-3.9,2.6-8,6.4-9.5,8.6-1.3,2-.8,4.5,1.2,7.2,1.1,1.5,2.9,2.8,6.5,5,3.6,2.2,4.2,2.6,5.3,4.3l.9,1.3h-2.4c-2.4-.2-2.5-.2-7.7-1.6-4.9-1.4-11.5-3.1-14.2-3.8-1-.3-1.7-.3-3.7-.2-1.4,0-3,.2-3.7.3-1.8.2-2.9-.3-4-1.9-.6-1-.6-1.2.6-2.7.5-.6,1.5-2,2.3-3.1,3.4-4.8,5.3-6.9,8.9-9.9,4-3.3,6.3-4.8,15.5-9.4,1.9-1,4.5-2.3,5.7-2.9,4.8-2.6,7.8-3.9,11.4-5.2,3.9-1.3,6.9-2,10.7-2.4,1.1-.1,2.4-.3,2.9-.4,1.5-.4,6.4-.3,9.6.1,1.5.2,4.9.5,7.7.7,16.6,1.2,29.1,3.7,47.2,9.7,12.2,4,15.8,5.4,24.4,9,6.9,3,10.3,5.2,11.6,7.8,1.4,2.7-.7,6.3-6.2,10.9-3.8,3.1-7.1,4.9-14.3,7.6-11,4.1-15.8,5.3-27.6,6.9-5.6.8-7.4.9-12.8,1.3-4.8.4-5.8.3-7.2,0h0ZM123.6,148.8c1-.1,3.2-.4,4.9-.7,1.7-.2,3.7-.5,4.6-.5,4.3-.3,7.8-1.3,12.1-3.3,3.6-1.7,6.1-3.3,11.2-7.1,2.8-2.1,3.5-2.8,3.9-4.1.7-2.4-2.3-7-6.9-10.4-3.6-2.6-7.5-4.5-13-6.3-4-1.3-12.5-3.6-12.7-3.5,0,0,.1.8.4,1.6.9,3.1,1.1,4.3,1.1,7.8,0,3,0,3.5-.5,5.1-1.3,4.8-3.4,8-9.6,14.6-2.5,2.6-3.1,3.7-3.1,5.3v1.1l1.6.3c2.1.4,3.9.4,6.1,0h0ZM103.3,148.1c1.8-.4,2.7-.8,5.6-2.9,9.5-6.7,13.6-11.4,15.1-17.1.4-1.5.6-5.5.3-6.4-.6-1.8-2-1.4-4.7,1.1-.9.8-1.7,1.4-2.1,1.6-1.3.4-2.5-.2-3.2-1.7-.2-.4-.6-1.1-.9-1.5-.8-1.1-.9-1.7-.4-3,.7-1.9.4-3.1-.7-4.1-.8-.7-1.6-.9-3.6-.8-1.6,0-1.9.1-3,.6-2.2,1-3.9,3-3.9,4.6,0,2.3,3.4,5.7,5.3,5.3.4,0,1.2-.2,1.9-.2,1.2,0,1.4,0,2.1.4.4.2,1.2.9,1.8,1.3.9.8,1,1,1,1.5s-.3,1.2-1.6,2.5c-1.9,2-4.6,3.4-7.9,4.2-2.6.6-6.1.7-8.3,0-4.7-1.3-9.5-5.1-11.7-9.4-.9-1.8-1.5-3.3-2.1-5.9-.4-1.6-.7-2.3-.9-2.3-.5-.1-1.5.3-2,.9-.5.6-2,3.5-3.1,5.9-2.1,4.7-3.1,10.2-2.4,12.7.7,2.3,2.1,4.5,4.4,6.9,2.9,3,4.9,4.2,7.7,4.6,3.7.6,10.7,1.3,14.1,1.3,1,0,2.3,0,3.1-.2h0Z"/>
    </g>
  </g>
</svg>